<svg width="59" height="60" viewBox="0 0 59 60" fill="none" xmlns="http://www.w3.org/2000/svg">
  <path d="M26.2001 12.1L10.1001 17.7" stroke="#000000" stroke-width="3" stroke-miterlimit="10" />
  <path d="M25.5 11.2V25.2" stroke="#000000" stroke-width="3" stroke-miterlimit="10" />
  <path d="M9.5 18.2V38.2" stroke="#000000" stroke-width="3" stroke-miterlimit="10" />
  <path d="M11.7 19.7L27.8 25.3" stroke="#000000" stroke-width="3" stroke-miterlimit="10" />
  <path d="M11.7 40.3L27.8 45.8" stroke="#000000" stroke-width="3" stroke-miterlimit="10" />
  <path d="M10.5 19.2V40.2" stroke="#000000" stroke-width="3" stroke-miterlimit="10" />
  <path d="M26.5 25.2V45.2" stroke="#000000" stroke-width="3" stroke-miterlimit="10" />
  <path d="M10.2 38.3L11.7 40.1" stroke="#000000" stroke-width="3" stroke-miterlimit="10" />
  <path d="M10.2 18L11.7 19.8" stroke="#000000" stroke-width="3" stroke-miterlimit="10" />
  <path d="M31.3 46.2L47.5 40.7" stroke="#000000" stroke-width="3" stroke-miterlimit="10" />
  <path d="M30.5 46.2V34.2" stroke="#000000" stroke-width="3" stroke-miterlimit="10" />
  <path d="M46.5 40.2V20.2" stroke="#000000" stroke-width="3" stroke-miterlimit="10" />
  <path d="M45.9 38.6L29.7 33.1" stroke="#000000" stroke-width="3" stroke-miterlimit="10" />
  <path d="M45.9 18.1L29.7 12.6" stroke="#000000" stroke-width="3" stroke-miterlimit="10" />
  <path d="M44.5 38.2V18.2" stroke="#000000" stroke-width="3" stroke-miterlimit="10" />
  <path d="M29.5 33.2V12.2" stroke="#000000" stroke-width="3" stroke-miterlimit="10" />
  <path d="M47.3999 20L45.8999 18.3" stroke="#000000" stroke-width="3" stroke-miterlimit="10" />
  <path d="M47.3999 40.4L45.8999 38.6" stroke="#000000" stroke-width="3" stroke-miterlimit="10" />
  <path d="M27.7999 46.1C27.7999 46.1 29.7999 58 25.8999 58" stroke="#000000" stroke-width="3" stroke-miterlimit="10" />
  <path d="M31.7 46.1C31.7 46.1 29.7 58 33.6 58" stroke="#000000" stroke-width="3" stroke-miterlimit="10" />
  <path d="M2 47.5L26.5 58.1" stroke="#000000" stroke-width="3" stroke-miterlimit="10" />
  <path d="M2.2001 17.7L2.1001 47.4" stroke="#000000" stroke-width="3" stroke-miterlimit="10" />
  <path d="M56.8 46L32.8 58.1" stroke="#000000" stroke-width="3" stroke-miterlimit="10" />
  <path d="M56.8 15.9L29.7 2" stroke="#000000" stroke-width="3" stroke-miterlimit="10" />
  <path d="M2 17.6L29.7 2" stroke="#000000" stroke-width="3" stroke-miterlimit="10" />
  <path d="M56.8999 45.9L56.9999 16.3" stroke="#000000" stroke-width="3" stroke-miterlimit="10" />
</svg>